<svg xmlns="http://www.w3.org/2000/svg" xmlns:xlink="http://www.w3.org/1999/xlink" width="169" zoomAndPan="magnify" viewBox="0 0 126.75 66" height="88" preserveAspectRatio="xMidYMid meet" version="1.0"><defs><g/><clipPath id="f3886bd61e"><path d="M 63 0.0664062 L 76 0.0664062 L 76 65.933594 L 63 65.933594 Z M 63 0.0664062 " clip-rule="nonzero"/></clipPath><clipPath id="9b82667cd8"><path d="M 57 0.0664062 L 70 0.0664062 L 70 65.933594 L 57 65.933594 Z M 57 0.0664062 " clip-rule="nonzero"/></clipPath><clipPath id="d9ce7b0c4d"><path d="M 51 0.0664062 L 64 0.0664062 L 64 65.933594 L 51 65.933594 Z M 51 0.0664062 " clip-rule="nonzero"/></clipPath><clipPath id="0ce53b4a07"><path d="M 45 0.0664062 L 58 0.0664062 L 58 65.933594 L 45 65.933594 Z M 45 0.0664062 " clip-rule="nonzero"/></clipPath><clipPath id="433b6f181f"><path d="M 39 0.0664062 L 52 0.0664062 L 52 65.933594 L 39 65.933594 Z M 39 0.0664062 " clip-rule="nonzero"/></clipPath><clipPath id="927f6fc17e"><path d="M 33 0.0664062 L 46 0.0664062 L 46 65.933594 L 33 65.933594 Z M 33 0.0664062 " clip-rule="nonzero"/></clipPath><clipPath id="6af7903b7f"><path d="M 27 0.0664062 L 40 0.0664062 L 40 65.933594 L 27 65.933594 Z M 27 0.0664062 " clip-rule="nonzero"/></clipPath><clipPath id="b040b770b8"><path d="M 21 0.0664062 L 34 0.0664062 L 34 65.933594 L 21 65.933594 Z M 21 0.0664062 " clip-rule="nonzero"/></clipPath><clipPath id="f6ce8ffaa7"><path d="M 14 0.0664062 L 28 0.0664062 L 28 65.933594 L 14 65.933594 Z M 14 0.0664062 " clip-rule="nonzero"/></clipPath><clipPath id="e916eff62c"><path d="M 8 0.0664062 L 21 0.0664062 L 21 65.933594 L 8 65.933594 Z M 8 0.0664062 " clip-rule="nonzero"/></clipPath><clipPath id="ef606813d1"><path d="M 2.695312 0.0664062 L 15 0.0664062 L 15 65.933594 L 2.695312 65.933594 Z M 2.695312 0.0664062 " clip-rule="nonzero"/></clipPath></defs><g clip-path="url(#f3886bd61e)"><path fill="#339677" d="M 66.351562 70.226562 C 67.179688 65.597656 72.808594 63.949219 74.917969 60.042969 C 76.945312 56.296875 71.429688 53.015625 69.167969 50.882812 C 68.0625 49.84375 66.664062 48.539062 66.394531 46.960938 C 66.15625 45.539062 66.804688 44.019531 67.410156 42.773438 C 68.660156 40.1875 70.875 37.617188 70.875 34.609375 C 70.875 31.746094 68.84375 29.253906 67.59375 26.820312 C 66.945312 25.558594 66.273438 24.089844 66.378906 22.640625 C 66.511719 20.863281 67.941406 19.488281 69.167969 18.332031 C 71.441406 16.191406 76.949219 12.925781 74.921875 9.171875 C 72.808594 5.265625 67.179688 3.621094 66.355469 -1.011719 L 63.332031 -1.011719 C 64.15625 3.621094 69.785156 5.265625 71.898438 9.171875 C 73.925781 12.925781 68.417969 16.191406 66.144531 18.332031 C 64.917969 19.488281 63.488281 20.863281 63.355469 22.640625 C 63.25 24.089844 63.921875 25.558594 64.570312 26.820312 C 65.824219 29.253906 67.851562 31.746094 67.851562 34.609375 C 67.851562 37.617188 65.636719 40.1875 64.386719 42.773438 C 63.785156 44.019531 63.132812 45.539062 63.375 46.960938 C 63.644531 48.539062 65.042969 49.84375 66.144531 50.882812 C 68.40625 53.015625 73.921875 56.292969 71.898438 60.042969 C 69.789062 63.949219 64.15625 65.597656 63.332031 70.226562 Z M 66.351562 70.226562 " fill-opacity="1" fill-rule="nonzero"/></g><g clip-path="url(#9b82667cd8)"><path fill="#339677" d="M 60.308594 70.226562 C 61.136719 65.597656 66.765625 63.949219 68.875 60.042969 C 70.902344 56.296875 65.386719 53.015625 63.125 50.882812 C 62.019531 49.84375 60.621094 48.539062 60.355469 46.960938 C 60.109375 45.539062 60.761719 44.019531 61.367188 42.773438 C 62.617188 40.1875 64.832031 37.617188 64.832031 34.609375 C 64.832031 31.746094 62.800781 29.253906 61.550781 26.820312 C 60.902344 25.558594 60.230469 24.089844 60.335938 22.640625 C 60.464844 20.863281 61.898438 19.488281 63.125 18.332031 C 65.398438 16.191406 70.90625 12.925781 68.875 9.171875 C 66.765625 5.265625 61.136719 3.621094 60.308594 -1.011719 L 57.289062 -1.011719 C 58.113281 3.621094 63.742188 5.265625 65.855469 9.171875 C 67.882812 12.925781 62.375 16.191406 60.105469 18.332031 C 58.878906 19.488281 57.445312 20.863281 57.316406 22.640625 C 57.210938 24.089844 57.882812 25.558594 58.53125 26.820312 C 59.78125 29.253906 61.808594 31.746094 61.808594 34.609375 C 61.808594 37.617188 59.59375 40.1875 58.34375 42.773438 C 57.738281 44.019531 57.089844 45.539062 57.332031 46.960938 C 57.597656 48.539062 59 49.84375 60.101562 50.882812 C 62.363281 53.015625 67.878906 56.292969 65.855469 60.042969 C 63.742188 63.949219 58.113281 65.597656 57.289062 70.226562 Z M 60.308594 70.226562 " fill-opacity="1" fill-rule="nonzero"/></g><g clip-path="url(#d9ce7b0c4d)"><path fill="#339677" d="M 54.265625 70.226562 C 55.089844 65.597656 60.722656 63.949219 62.832031 60.042969 C 64.859375 56.296875 59.34375 53.015625 57.082031 50.882812 C 55.976562 49.84375 54.578125 48.539062 54.308594 46.960938 C 54.066406 45.539062 54.71875 44.019531 55.320312 42.773438 C 56.574219 40.1875 58.785156 37.617188 58.785156 34.609375 C 58.785156 31.746094 56.757812 29.253906 55.507812 26.820312 C 54.859375 25.558594 54.1875 24.089844 54.292969 22.640625 C 54.421875 20.863281 55.855469 19.488281 57.082031 18.332031 C 59.355469 16.191406 64.863281 12.925781 62.832031 9.171875 C 60.722656 5.265625 55.09375 3.621094 54.269531 -1.011719 L 51.246094 -1.011719 C 52.070312 3.621094 57.699219 5.265625 59.8125 9.171875 C 61.839844 12.925781 56.332031 16.191406 54.058594 18.332031 C 52.832031 19.488281 51.402344 20.863281 51.269531 22.640625 C 51.164062 24.089844 51.835938 25.558594 52.484375 26.820312 C 53.734375 29.253906 55.765625 31.746094 55.765625 34.609375 C 55.765625 37.617188 53.550781 40.1875 52.300781 42.773438 C 51.695312 44.019531 51.046875 45.539062 51.289062 46.960938 C 51.554688 48.539062 52.957031 49.84375 54.058594 50.882812 C 56.320312 53.015625 61.835938 56.292969 59.8125 60.042969 C 57.699219 63.949219 52.070312 65.597656 51.246094 70.226562 Z M 54.265625 70.226562 " fill-opacity="1" fill-rule="nonzero"/></g><g clip-path="url(#0ce53b4a07)"><path fill="#339677" d="M 48.226562 70.226562 C 49.050781 65.597656 54.679688 63.949219 56.789062 60.042969 C 58.816406 56.296875 53.300781 53.015625 51.039062 50.882812 C 49.9375 49.84375 48.535156 48.539062 48.269531 46.960938 C 48.027344 45.539062 48.675781 44.019531 49.28125 42.773438 C 50.53125 40.1875 52.746094 37.617188 52.746094 34.609375 C 52.746094 31.746094 50.71875 29.253906 49.464844 26.820312 C 48.820312 25.558594 48.144531 24.089844 48.25 22.640625 C 48.382812 20.863281 49.8125 19.488281 51.039062 18.332031 C 53.3125 16.191406 58.820312 12.925781 56.792969 9.171875 C 54.679688 5.265625 49.050781 3.621094 48.226562 -1.011719 L 45.203125 -1.011719 C 46.027344 3.621094 51.65625 5.265625 53.769531 9.171875 C 55.796875 12.925781 50.289062 16.191406 48.015625 18.332031 C 46.789062 19.488281 45.359375 20.863281 45.226562 22.640625 C 45.121094 24.089844 45.792969 25.558594 46.441406 26.820312 C 47.695312 29.253906 49.722656 31.746094 49.722656 34.609375 C 49.722656 37.617188 47.507812 40.1875 46.257812 42.773438 C 45.652344 44.019531 45.003906 45.539062 45.246094 46.960938 C 45.511719 48.539062 46.914062 49.84375 48.015625 50.882812 C 50.277344 53.015625 55.792969 56.292969 53.765625 60.042969 C 51.65625 63.949219 46.027344 65.597656 45.203125 70.226562 Z M 48.226562 70.226562 " fill-opacity="1" fill-rule="nonzero"/></g><g clip-path="url(#433b6f181f)"><path fill="#339677" d="M 42.179688 70.226562 C 43.003906 65.597656 48.636719 63.949219 50.746094 60.042969 C 52.773438 56.296875 47.257812 53.015625 44.992188 50.882812 C 43.890625 49.84375 42.492188 48.539062 42.222656 46.960938 C 41.980469 45.539062 42.632812 44.019531 43.234375 42.773438 C 44.488281 40.1875 46.699219 37.617188 46.699219 34.609375 C 46.699219 31.746094 44.671875 29.253906 43.421875 26.820312 C 42.773438 25.558594 42.101562 24.089844 42.207031 22.640625 C 42.335938 20.863281 43.769531 19.488281 44.996094 18.332031 C 47.269531 16.191406 52.777344 12.925781 50.746094 9.171875 C 48.636719 5.265625 43.007812 3.621094 42.179688 -1.011719 L 39.160156 -1.011719 C 39.984375 3.621094 45.613281 5.265625 47.722656 9.171875 C 49.753906 12.925781 44.246094 16.191406 41.972656 18.332031 C 40.746094 19.488281 39.316406 20.863281 39.183594 22.640625 C 39.078125 24.089844 39.75 25.558594 40.398438 26.820312 C 41.648438 29.253906 43.679688 31.746094 43.679688 34.609375 C 43.679688 37.617188 41.464844 40.1875 40.214844 42.773438 C 39.609375 44.019531 38.957031 45.539062 39.203125 46.960938 C 39.46875 48.539062 40.871094 49.84375 41.972656 50.882812 C 44.234375 53.015625 49.75 56.292969 47.722656 60.042969 C 45.613281 63.949219 39.984375 65.597656 39.160156 70.226562 Z M 42.179688 70.226562 " fill-opacity="1" fill-rule="nonzero"/></g><g clip-path="url(#927f6fc17e)"><path fill="#339677" d="M 36.132812 70.226562 C 36.960938 65.597656 42.589844 63.949219 44.699219 60.042969 C 46.726562 56.296875 41.210938 53.015625 38.949219 50.882812 C 37.847656 49.84375 36.445312 48.539062 36.179688 46.960938 C 35.933594 45.539062 36.585938 44.019531 37.191406 42.773438 C 38.441406 40.1875 40.65625 37.617188 40.65625 34.609375 C 40.65625 31.746094 38.625 29.253906 37.375 26.820312 C 36.726562 25.558594 36.054688 24.089844 36.160156 22.640625 C 36.292969 20.863281 37.722656 19.488281 38.949219 18.332031 C 41.222656 16.191406 46.730469 12.925781 44.699219 9.171875 C 42.589844 5.265625 36.960938 3.621094 36.136719 -1.011719 L 33.117188 -1.011719 C 33.941406 3.621094 39.570312 5.265625 41.683594 9.171875 C 43.710938 12.925781 38.203125 16.191406 35.929688 18.332031 C 34.703125 19.488281 33.273438 20.863281 33.140625 22.640625 C 33.035156 24.089844 33.707031 25.558594 34.355469 26.820312 C 35.605469 29.253906 37.636719 31.746094 37.636719 34.609375 C 37.636719 37.617188 35.421875 40.1875 34.171875 42.773438 C 33.566406 44.019531 32.917969 45.539062 33.15625 46.960938 C 33.425781 48.539062 34.824219 49.84375 35.929688 50.882812 C 38.191406 53.015625 43.707031 56.292969 41.679688 60.042969 C 39.570312 63.949219 33.941406 65.597656 33.117188 70.226562 Z M 36.132812 70.226562 " fill-opacity="1" fill-rule="nonzero"/></g><g clip-path="url(#6af7903b7f)"><path fill="#339677" d="M 30.09375 70.226562 C 30.917969 65.597656 36.550781 63.949219 38.660156 60.042969 C 40.6875 56.296875 35.171875 53.015625 32.90625 50.882812 C 31.804688 49.84375 30.40625 48.539062 30.136719 46.960938 C 29.894531 45.539062 30.546875 44.019531 31.148438 42.773438 C 32.402344 40.1875 34.613281 37.617188 34.613281 34.609375 C 34.613281 31.746094 32.585938 29.253906 31.335938 26.820312 C 30.6875 25.558594 30.011719 24.089844 30.121094 22.640625 C 30.25 20.863281 31.679688 19.488281 32.90625 18.332031 C 35.179688 16.191406 40.691406 12.925781 38.660156 9.171875 C 36.546875 5.265625 30.917969 3.621094 30.09375 -1.011719 L 27.074219 -1.011719 C 27.898438 3.621094 33.527344 5.265625 35.640625 9.171875 C 37.667969 12.925781 32.160156 16.191406 29.886719 18.332031 C 28.660156 19.488281 27.230469 20.863281 27.097656 22.640625 C 26.992188 24.089844 27.664062 25.558594 28.3125 26.820312 C 29.5625 29.253906 31.59375 31.746094 31.59375 34.609375 C 31.59375 37.617188 29.378906 40.1875 28.128906 42.773438 C 27.523438 44.019531 26.875 45.539062 27.117188 46.960938 C 27.382812 48.539062 28.785156 49.84375 29.886719 50.882812 C 32.148438 53.015625 37.664062 56.292969 35.636719 60.042969 C 33.527344 63.949219 27.898438 65.597656 27.074219 70.226562 Z M 30.09375 70.226562 " fill-opacity="1" fill-rule="nonzero"/></g><g clip-path="url(#b040b770b8)"><path fill="#339677" d="M 24.050781 70.226562 C 24.875 65.597656 30.507812 63.949219 32.617188 60.042969 C 34.644531 56.296875 29.128906 53.015625 26.863281 50.882812 C 25.761719 49.84375 24.363281 48.539062 24.09375 46.960938 C 23.851562 45.539062 24.503906 44.019531 25.105469 42.773438 C 26.359375 40.1875 28.570312 37.617188 28.570312 34.609375 C 28.570312 31.746094 26.542969 29.253906 25.292969 26.820312 C 24.644531 25.558594 23.96875 24.089844 24.078125 22.640625 C 24.207031 20.863281 25.640625 19.488281 26.863281 18.332031 C 29.136719 16.191406 34.648438 12.925781 32.617188 9.171875 C 30.503906 5.265625 24.875 3.621094 24.050781 -1.011719 L 21.03125 -1.011719 C 21.855469 3.621094 27.484375 5.265625 29.59375 9.171875 C 31.625 12.925781 26.117188 16.191406 23.84375 18.332031 C 22.617188 19.488281 21.183594 20.863281 21.054688 22.640625 C 20.949219 24.089844 21.621094 25.558594 22.269531 26.820312 C 23.519531 29.253906 25.550781 31.746094 25.550781 34.609375 C 25.550781 37.617188 23.335938 40.1875 22.085938 42.773438 C 21.480469 44.019531 20.832031 45.539062 21.074219 46.960938 C 21.339844 48.539062 22.742188 49.84375 23.84375 50.882812 C 26.105469 53.015625 31.621094 56.292969 29.59375 60.042969 C 27.484375 63.949219 21.851562 65.597656 21.03125 70.226562 Z M 24.050781 70.226562 " fill-opacity="1" fill-rule="nonzero"/></g><g clip-path="url(#f6ce8ffaa7)"><path fill="#339677" d="M 18.007812 70.226562 C 18.832031 65.597656 24.464844 63.949219 26.574219 60.042969 C 28.601562 56.296875 23.082031 53.015625 20.820312 50.882812 C 19.71875 49.84375 18.320312 48.539062 18.050781 46.960938 C 17.808594 45.539062 18.460938 44.019531 19.0625 42.773438 C 20.316406 40.1875 22.527344 37.617188 22.527344 34.609375 C 22.527344 31.746094 20.5 29.253906 19.25 26.820312 C 18.597656 25.558594 17.925781 24.089844 18.03125 22.640625 C 18.164062 20.863281 19.59375 19.488281 20.820312 18.332031 C 23.09375 16.191406 28.601562 12.925781 26.574219 9.171875 C 24.460938 5.265625 18.832031 3.621094 18.007812 -1.011719 L 14.984375 -1.011719 C 15.8125 3.621094 21.441406 5.265625 23.550781 9.171875 C 25.582031 12.925781 20.074219 16.191406 17.800781 18.332031 C 16.574219 19.488281 15.140625 20.863281 15.011719 22.640625 C 14.90625 24.089844 15.578125 25.558594 16.226562 26.820312 C 17.476562 29.253906 19.503906 31.746094 19.503906 34.609375 C 19.503906 37.617188 17.292969 40.1875 16.042969 42.773438 C 15.4375 44.019531 14.785156 45.539062 15.027344 46.960938 C 15.296875 48.539062 16.695312 49.84375 17.800781 50.882812 C 20.0625 53.015625 25.578125 56.292969 23.550781 60.042969 C 21.441406 63.949219 15.8125 65.597656 14.984375 70.226562 Z M 18.007812 70.226562 " fill-opacity="1" fill-rule="nonzero"/></g><g clip-path="url(#e916eff62c)"><path fill="#339677" d="M 11.964844 70.226562 C 12.789062 65.597656 18.417969 63.949219 20.53125 60.042969 C 22.558594 56.292969 17.042969 53.015625 14.78125 50.882812 C 13.679688 49.84375 12.277344 48.539062 12.011719 46.960938 C 11.769531 45.539062 12.417969 44.019531 13.023438 42.773438 C 14.273438 40.1875 16.488281 37.617188 16.488281 34.609375 C 16.488281 31.746094 14.457031 29.253906 13.207031 26.820312 C 12.558594 25.558594 11.886719 24.089844 11.992188 22.640625 C 12.125 20.863281 13.554688 19.488281 14.78125 18.332031 C 17.054688 16.191406 22.5625 12.925781 20.535156 9.171875 C 18.421875 5.265625 12.792969 3.621094 11.96875 -1.011719 L 8.941406 -1.011719 C 9.769531 3.621094 15.398438 5.265625 17.507812 9.171875 C 19.539062 12.925781 14.03125 16.191406 11.757812 18.332031 C 10.53125 19.488281 9.097656 20.863281 8.96875 22.640625 C 8.863281 24.089844 9.535156 25.558594 10.183594 26.820312 C 11.433594 29.253906 13.460938 31.746094 13.460938 34.609375 C 13.460938 37.617188 11.25 40.1875 9.996094 42.773438 C 9.394531 44.019531 8.742188 45.539062 8.984375 46.960938 C 9.253906 48.539062 10.652344 49.84375 11.753906 50.882812 C 14.019531 53.015625 19.535156 56.292969 17.507812 60.042969 C 15.398438 63.949219 9.769531 65.597656 8.941406 70.226562 Z M 11.964844 70.226562 " fill-opacity="1" fill-rule="nonzero"/></g><g clip-path="url(#ef606813d1)"><path fill="#339677" d="M 5.921875 70.226562 C 6.746094 65.597656 12.375 63.949219 14.488281 60.042969 C 16.511719 56.296875 10.996094 53.015625 8.734375 50.882812 C 7.632812 49.84375 6.234375 48.539062 5.964844 46.960938 C 5.722656 45.539062 6.375 44.019531 6.976562 42.773438 C 8.230469 40.1875 10.441406 37.617188 10.441406 34.609375 C 10.441406 31.746094 8.414062 29.253906 7.164062 26.820312 C 6.515625 25.558594 5.839844 24.089844 5.949219 22.640625 C 6.078125 20.863281 7.507812 19.488281 8.734375 18.332031 C 11.007812 16.191406 16.519531 12.925781 14.488281 9.171875 C 12.375 5.265625 6.746094 3.621094 5.921875 -1.011719 L 2.902344 -1.011719 C 3.726562 3.621094 9.355469 5.265625 11.46875 9.171875 C 13.496094 12.925781 7.988281 16.191406 5.714844 18.332031 C 4.488281 19.488281 3.058594 20.863281 2.929688 22.640625 C 2.820312 24.089844 3.492188 25.558594 4.140625 26.820312 C 5.390625 29.253906 7.417969 31.746094 7.417969 34.609375 C 7.417969 37.617188 5.207031 40.1875 3.953125 42.773438 C 3.351562 44.019531 2.699219 45.539062 2.941406 46.960938 C 3.210938 48.539062 4.609375 49.84375 5.714844 50.882812 C 7.976562 53.015625 13.492188 56.292969 11.464844 60.042969 C 9.355469 63.949219 3.726562 65.597656 2.902344 70.226562 Z M 5.921875 70.226562 " fill-opacity="1" fill-rule="nonzero"/></g><g fill="#ffffff" fill-opacity="1"><g transform="translate(17.670847, 40.384383)"><g><path d="M 11.765625 0 C 11.503906 0 11.34375 -0.125 11.28125 -0.375 L 10.8125 -2.03125 C 10.78125 -2.132812 10.710938 -2.1875 10.609375 -2.1875 L 5.828125 -2.1875 C 5.710938 -2.1875 5.640625 -2.132812 5.609375 -2.03125 L 5.15625 -0.375 C 5.09375 -0.125 4.929688 0 4.671875 0 L 0.9375 0 C 0.789062 0 0.679688 -0.046875 0.609375 -0.140625 C 0.535156 -0.234375 0.523438 -0.351562 0.578125 -0.5 L 5.359375 -15.75 C 5.441406 -15.988281 5.601562 -16.109375 5.84375 -16.109375 L 10.59375 -16.109375 C 10.832031 -16.109375 10.992188 -15.988281 11.078125 -15.75 L 15.859375 -0.5 C 15.867188 -0.457031 15.875 -0.40625 15.875 -0.34375 C 15.875 -0.113281 15.742188 0 15.484375 0 Z M 6.625 -5.65625 C 6.625 -5.550781 6.679688 -5.5 6.796875 -5.5 L 9.640625 -5.5 C 9.703125 -5.5 9.75 -5.515625 9.78125 -5.546875 C 9.8125 -5.585938 9.820312 -5.640625 9.8125 -5.703125 L 8.328125 -11.03125 C 8.316406 -11.101562 8.28125 -11.140625 8.21875 -11.140625 C 8.164062 -11.140625 8.125 -11.101562 8.09375 -11.03125 L 6.625 -5.703125 Z M 6.625 -5.65625 "/></g></g></g><g fill="#ffffff" fill-opacity="1"><g transform="translate(33.758771, 40.384383)"><g><path d="M 7.109375 0.1875 C 5.867188 0.1875 4.769531 -0.0507812 3.8125 -0.53125 C 2.851562 -1.007812 2.113281 -1.679688 1.59375 -2.546875 C 1.070312 -3.421875 0.8125 -4.4375 0.8125 -5.59375 L 0.8125 -15.671875 C 0.8125 -15.960938 0.957031 -16.109375 1.25 -16.109375 L 4.6875 -16.109375 C 4.976562 -16.109375 5.125 -15.960938 5.125 -15.671875 L 5.125 -5.59375 C 5.125 -4.96875 5.304688 -4.460938 5.671875 -4.078125 C 6.035156 -3.703125 6.515625 -3.515625 7.109375 -3.515625 C 7.691406 -3.515625 8.160156 -3.707031 8.515625 -4.09375 C 8.878906 -4.476562 9.0625 -4.976562 9.0625 -5.59375 L 9.0625 -15.671875 C 9.0625 -15.960938 9.207031 -16.109375 9.5 -16.109375 L 12.953125 -16.109375 C 13.242188 -16.109375 13.390625 -15.960938 13.390625 -15.671875 L 13.390625 -5.59375 C 13.390625 -4.4375 13.128906 -3.421875 12.609375 -2.546875 C 12.085938 -1.679688 11.347656 -1.007812 10.390625 -0.53125 C 9.441406 -0.0507812 8.347656 0.1875 7.109375 0.1875 Z M 7.109375 0.1875 "/></g></g></g><g fill="#ffffff" fill-opacity="1"><g transform="translate(47.614182, 40.384383)"><g><path d="M 1.328125 0 C 1.035156 0 0.890625 -0.144531 0.890625 -0.4375 L 0.890625 -15.671875 C 0.890625 -15.960938 1.035156 -16.109375 1.328125 -16.109375 L 7.15625 -16.109375 C 8.394531 -16.109375 9.492188 -15.894531 10.453125 -15.46875 C 11.421875 -15.039062 12.164062 -14.429688 12.6875 -13.640625 C 13.207031 -12.859375 13.46875 -11.957031 13.46875 -10.9375 L 13.46875 -5.171875 C 13.46875 -4.148438 13.207031 -3.242188 12.6875 -2.453125 C 12.164062 -1.671875 11.421875 -1.066406 10.453125 -0.640625 C 9.492188 -0.210938 8.394531 0 7.15625 0 Z M 5.21875 -3.890625 C 5.21875 -3.765625 5.28125 -3.703125 5.40625 -3.703125 L 7.3125 -3.703125 C 7.832031 -3.703125 8.257812 -3.90625 8.59375 -4.3125 C 8.9375 -4.71875 9.117188 -5.253906 9.140625 -5.921875 L 9.140625 -10.203125 C 9.140625 -10.859375 8.96875 -11.390625 8.625 -11.796875 C 8.289062 -12.203125 7.847656 -12.40625 7.296875 -12.40625 L 5.40625 -12.40625 C 5.28125 -12.40625 5.21875 -12.34375 5.21875 -12.21875 Z M 5.21875 -3.890625 "/></g></g></g><g fill="#ffffff" fill-opacity="1"><g transform="translate(61.492606, 40.384383)"><g><path d="M 1.328125 0 C 1.035156 0 0.890625 -0.144531 0.890625 -0.4375 L 0.890625 -15.671875 C 0.890625 -15.960938 1.035156 -16.109375 1.328125 -16.109375 L 4.78125 -16.109375 C 5.070312 -16.109375 5.21875 -15.960938 5.21875 -15.671875 L 5.21875 -0.4375 C 5.21875 -0.144531 5.070312 0 4.78125 0 Z M 1.328125 0 "/></g></g></g><g fill="#ffffff" fill-opacity="1"><g transform="translate(67.269508, 40.384383)"><g><path d="M 7.140625 0.28125 C 5.859375 0.28125 4.726562 0.0234375 3.75 -0.484375 C 2.78125 -1.003906 2.023438 -1.726562 1.484375 -2.65625 C 0.953125 -3.582031 0.6875 -4.660156 0.6875 -5.890625 L 0.6875 -10.21875 C 0.6875 -11.414062 0.953125 -12.472656 1.484375 -13.390625 C 2.023438 -14.316406 2.78125 -15.03125 3.75 -15.53125 C 4.726562 -16.039062 5.859375 -16.296875 7.140625 -16.296875 C 8.421875 -16.296875 9.546875 -16.039062 10.515625 -15.53125 C 11.492188 -15.03125 12.253906 -14.316406 12.796875 -13.390625 C 13.335938 -12.472656 13.609375 -11.414062 13.609375 -10.21875 L 13.609375 -5.890625 C 13.609375 -4.660156 13.335938 -3.582031 12.796875 -2.65625 C 12.253906 -1.726562 11.492188 -1.003906 10.515625 -0.484375 C 9.546875 0.0234375 8.421875 0.28125 7.140625 0.28125 Z M 7.140625 -3.421875 C 7.773438 -3.421875 8.289062 -3.628906 8.6875 -4.046875 C 9.082031 -4.472656 9.28125 -5.039062 9.28125 -5.75 L 9.28125 -10.265625 C 9.28125 -10.972656 9.082031 -11.535156 8.6875 -11.953125 C 8.289062 -12.378906 7.773438 -12.59375 7.140625 -12.59375 C 6.503906 -12.59375 5.988281 -12.378906 5.59375 -11.953125 C 5.207031 -11.535156 5.015625 -10.972656 5.015625 -10.265625 L 5.015625 -5.75 C 5.015625 -5.039062 5.207031 -4.472656 5.59375 -4.046875 C 5.988281 -3.628906 6.503906 -3.421875 7.140625 -3.421875 Z M 7.140625 -3.421875 "/></g></g></g><g fill="#ffffff" fill-opacity="1"><g transform="translate(81.216977, 40.384383)"><g><path d="M 12.84375 -16.109375 C 13.132812 -16.109375 13.28125 -15.960938 13.28125 -15.671875 L 13.28125 -12.8125 C 13.28125 -12.519531 13.132812 -12.375 12.84375 -12.375 L 9.140625 -12.375 C 9.015625 -12.375 8.953125 -12.316406 8.953125 -12.203125 L 8.953125 -0.4375 C 8.953125 -0.144531 8.804688 0 8.515625 0 L 5.0625 0 C 4.769531 0 4.625 -0.144531 4.625 -0.4375 L 4.625 -12.203125 C 4.625 -12.316406 4.5625 -12.375 4.4375 -12.375 L 0.859375 -12.375 C 0.566406 -12.375 0.421875 -12.519531 0.421875 -12.8125 L 0.421875 -15.671875 C 0.421875 -15.960938 0.566406 -16.109375 0.859375 -16.109375 Z M 12.84375 -16.109375 "/></g></g></g><g fill="#ffffff" fill-opacity="1"><g transform="translate(94.566045, 40.384383)"><g><path d="M 11.765625 0 C 11.503906 0 11.34375 -0.125 11.28125 -0.375 L 10.8125 -2.03125 C 10.78125 -2.132812 10.710938 -2.1875 10.609375 -2.1875 L 5.828125 -2.1875 C 5.710938 -2.1875 5.640625 -2.132812 5.609375 -2.03125 L 5.15625 -0.375 C 5.09375 -0.125 4.929688 0 4.671875 0 L 0.9375 0 C 0.789062 0 0.679688 -0.046875 0.609375 -0.140625 C 0.535156 -0.234375 0.523438 -0.351562 0.578125 -0.5 L 5.359375 -15.75 C 5.441406 -15.988281 5.601562 -16.109375 5.84375 -16.109375 L 10.59375 -16.109375 C 10.832031 -16.109375 10.992188 -15.988281 11.078125 -15.75 L 15.859375 -0.5 C 15.867188 -0.457031 15.875 -0.40625 15.875 -0.34375 C 15.875 -0.113281 15.742188 0 15.484375 0 Z M 6.625 -5.65625 C 6.625 -5.550781 6.679688 -5.5 6.796875 -5.5 L 9.640625 -5.5 C 9.703125 -5.5 9.75 -5.515625 9.78125 -5.546875 C 9.8125 -5.585938 9.820312 -5.640625 9.8125 -5.703125 L 8.328125 -11.03125 C 8.316406 -11.101562 8.28125 -11.140625 8.21875 -11.140625 C 8.164062 -11.140625 8.125 -11.101562 8.09375 -11.03125 L 6.625 -5.703125 Z M 6.625 -5.65625 "/></g></g></g><g fill="#ffffff" fill-opacity="1"><g transform="translate(110.653971, 40.384383)"><g><path d="M 7.046875 0.1875 C 5.785156 0.1875 4.675781 -0.0625 3.71875 -0.5625 C 2.757812 -1.070312 2.015625 -1.785156 1.484375 -2.703125 C 0.953125 -3.628906 0.6875 -4.691406 0.6875 -5.890625 L 0.6875 -10.234375 C 0.6875 -11.429688 0.953125 -12.488281 1.484375 -13.40625 C 2.015625 -14.320312 2.757812 -15.03125 3.71875 -15.53125 C 4.675781 -16.039062 5.785156 -16.296875 7.046875 -16.296875 C 8.273438 -16.296875 9.367188 -16.050781 10.328125 -15.5625 C 11.296875 -15.082031 12.046875 -14.425781 12.578125 -13.59375 C 13.109375 -12.769531 13.375 -11.867188 13.375 -10.890625 C 13.375 -10.640625 13.226562 -10.515625 12.9375 -10.515625 L 9.5 -10.515625 C 9.207031 -10.515625 9.0625 -10.554688 9.0625 -10.640625 L 9.0625 -10.71875 C 9.0625 -11.226562 8.878906 -11.664062 8.515625 -12.03125 C 8.160156 -12.40625 7.671875 -12.59375 7.046875 -12.59375 C 6.429688 -12.59375 5.9375 -12.390625 5.5625 -11.984375 C 5.195312 -11.578125 5.015625 -11.035156 5.015625 -10.359375 L 5.015625 -5.75 C 5.015625 -5.09375 5.222656 -4.554688 5.640625 -4.140625 C 6.066406 -3.722656 6.597656 -3.515625 7.234375 -3.515625 C 7.796875 -3.515625 8.253906 -3.671875 8.609375 -3.984375 C 8.972656 -4.304688 9.15625 -4.742188 9.15625 -5.296875 L 9.15625 -5.53125 C 9.15625 -5.644531 9.09375 -5.703125 8.96875 -5.703125 L 7.109375 -5.703125 C 6.816406 -5.703125 6.671875 -5.847656 6.671875 -6.140625 L 6.671875 -8.71875 C 6.671875 -9.007812 6.816406 -9.15625 7.109375 -9.15625 L 12.9375 -9.15625 C 13.226562 -9.15625 13.375 -9.007812 13.375 -8.71875 L 13.375 -5.65625 C 13.375 -4.519531 13.109375 -3.503906 12.578125 -2.609375 C 12.046875 -1.722656 11.300781 -1.035156 10.34375 -0.546875 C 9.382812 -0.0546875 8.285156 0.1875 7.046875 0.1875 Z M 7.046875 0.1875 "/></g></g></g><g fill="#ffffff" fill-opacity="1"><g transform="translate(16.058111, 51.432624)"><g><path d="M 3.015625 0.09375 C 2.234375 0.09375 1.617188 -0.0820312 1.171875 -0.4375 C 0.734375 -0.789062 0.515625 -1.265625 0.515625 -1.859375 C 0.515625 -1.929688 0.519531 -2.035156 0.53125 -2.171875 L 0.578125 -2.40625 C 0.585938 -2.519531 0.648438 -2.578125 0.765625 -2.578125 L 1.65625 -2.578125 C 1.769531 -2.578125 1.820312 -2.519531 1.8125 -2.40625 L 1.78125 -2.234375 L 1.765625 -2.109375 C 1.765625 -1.796875 1.894531 -1.535156 2.15625 -1.328125 C 2.425781 -1.128906 2.789062 -1.03125 3.25 -1.03125 C 3.71875 -1.03125 4.078125 -1.140625 4.328125 -1.359375 C 4.585938 -1.585938 4.71875 -1.867188 4.71875 -2.203125 C 4.71875 -2.460938 4.601562 -2.671875 4.375 -2.828125 C 4.144531 -2.992188 3.734375 -3.203125 3.140625 -3.453125 C 2.691406 -3.628906 2.320312 -3.796875 2.03125 -3.953125 C 1.75 -4.117188 1.515625 -4.328125 1.328125 -4.578125 C 1.140625 -4.828125 1.046875 -5.140625 1.046875 -5.515625 C 1.046875 -6.015625 1.164062 -6.445312 1.40625 -6.8125 C 1.644531 -7.175781 1.976562 -7.453125 2.40625 -7.640625 C 2.84375 -7.835938 3.332031 -7.9375 3.875 -7.9375 C 4.644531 -7.9375 5.253906 -7.753906 5.703125 -7.390625 C 6.160156 -7.023438 6.390625 -6.535156 6.390625 -5.921875 C 6.390625 -5.859375 6.378906 -5.757812 6.359375 -5.625 L 6.34375 -5.484375 C 6.320312 -5.367188 6.253906 -5.3125 6.140625 -5.3125 L 5.25 -5.3125 C 5.195312 -5.3125 5.15625 -5.320312 5.125 -5.34375 C 5.09375 -5.375 5.082031 -5.40625 5.09375 -5.4375 L 5.109375 -5.5625 L 5.125 -5.703125 C 5.125 -6.023438 5 -6.289062 4.75 -6.5 C 4.5 -6.71875 4.144531 -6.828125 3.6875 -6.828125 C 3.257812 -6.828125 2.914062 -6.726562 2.65625 -6.53125 C 2.40625 -6.332031 2.28125 -6.054688 2.28125 -5.703125 C 2.28125 -5.515625 2.335938 -5.351562 2.453125 -5.21875 C 2.566406 -5.09375 2.726562 -4.976562 2.9375 -4.875 C 3.144531 -4.769531 3.46875 -4.628906 3.90625 -4.453125 C 4.363281 -4.265625 4.726562 -4.09375 5 -3.9375 C 5.28125 -3.789062 5.515625 -3.59375 5.703125 -3.34375 C 5.898438 -3.09375 6 -2.773438 6 -2.390625 C 6 -2.335938 5.992188 -2.242188 5.984375 -2.109375 C 5.929688 -1.671875 5.773438 -1.285156 5.515625 -0.953125 C 5.253906 -0.617188 4.910156 -0.359375 4.484375 -0.171875 C 4.054688 0.00390625 3.566406 0.09375 3.015625 0.09375 Z M 3.015625 0.09375 "/></g></g></g><g fill="#ffffff" fill-opacity="1"><g transform="translate(23.588095, 51.432624)"><g><path d="M 5.671875 -7.671875 C 5.671875 -7.722656 5.6875 -7.765625 5.71875 -7.796875 C 5.757812 -7.835938 5.804688 -7.859375 5.859375 -7.859375 L 6.78125 -7.859375 C 6.832031 -7.859375 6.867188 -7.835938 6.890625 -7.796875 C 6.921875 -7.765625 6.929688 -7.722656 6.921875 -7.671875 L 6 -0.171875 C 5.988281 -0.0546875 5.925781 0 5.8125 0 L 4.90625 0 C 4.78125 0 4.726562 -0.0546875 4.75 -0.171875 L 5.125 -3.328125 C 5.132812 -3.347656 5.132812 -3.363281 5.125 -3.375 C 5.113281 -3.394531 5.097656 -3.40625 5.078125 -3.40625 L 2.328125 -3.40625 C 2.285156 -3.40625 2.257812 -3.378906 2.25 -3.328125 L 1.859375 -0.171875 C 1.847656 -0.117188 1.828125 -0.078125 1.796875 -0.046875 C 1.765625 -0.015625 1.71875 0 1.65625 0 L 0.75 0 C 0.632812 0 0.582031 -0.0546875 0.59375 -0.171875 L 1.515625 -7.671875 C 1.535156 -7.796875 1.601562 -7.859375 1.71875 -7.859375 L 2.625 -7.859375 C 2.75 -7.859375 2.800781 -7.796875 2.78125 -7.671875 L 2.40625 -4.59375 C 2.40625 -4.539062 2.421875 -4.515625 2.453125 -4.515625 L 5.21875 -4.515625 C 5.257812 -4.515625 5.28125 -4.539062 5.28125 -4.59375 Z M 5.671875 -7.671875 "/></g></g></g><g fill="#ffffff" fill-opacity="1"><g transform="translate(31.633419, 51.432624)"><g><path d="M 5.34375 0 C 5.238281 0 5.175781 -0.046875 5.15625 -0.140625 L 4.96875 -1.296875 C 4.96875 -1.335938 4.945312 -1.359375 4.90625 -1.359375 L 2.046875 -1.359375 C 2.015625 -1.359375 1.988281 -1.335938 1.96875 -1.296875 L 1.484375 -0.140625 C 1.441406 -0.046875 1.367188 0 1.265625 0 L 0.28125 0 C 0.21875 0 0.175781 -0.015625 0.15625 -0.046875 C 0.144531 -0.0859375 0.148438 -0.140625 0.171875 -0.203125 L 3.421875 -7.703125 C 3.460938 -7.804688 3.535156 -7.859375 3.640625 -7.859375 L 4.90625 -7.859375 C 5 -7.859375 5.054688 -7.804688 5.078125 -7.703125 L 6.5 -0.203125 L 6.5 -0.15625 C 6.5 -0.0507812 6.445312 0 6.34375 0 Z M 2.453125 -2.453125 C 2.421875 -2.398438 2.429688 -2.375 2.484375 -2.375 L 4.71875 -2.375 C 4.757812 -2.375 4.78125 -2.398438 4.78125 -2.453125 L 4.125 -6.265625 C 4.113281 -6.296875 4.097656 -6.3125 4.078125 -6.3125 C 4.066406 -6.3125 4.050781 -6.296875 4.03125 -6.265625 Z M 2.453125 -2.453125 "/></g></g></g><g fill="#ffffff" fill-opacity="1"><g transform="translate(39.801983, 51.432624)"><g><path d="M 4.890625 0 C 4.785156 0 4.722656 -0.046875 4.703125 -0.140625 L 3.671875 -3.34375 C 3.660156 -3.375 3.632812 -3.390625 3.59375 -3.390625 L 2.328125 -3.390625 C 2.285156 -3.390625 2.257812 -3.367188 2.25 -3.328125 L 1.859375 -0.171875 C 1.847656 -0.117188 1.828125 -0.078125 1.796875 -0.046875 C 1.765625 -0.015625 1.71875 0 1.65625 0 L 0.75 0 C 0.632812 0 0.582031 -0.0546875 0.59375 -0.171875 L 1.53125 -7.6875 C 1.539062 -7.800781 1.601562 -7.859375 1.71875 -7.859375 L 4.671875 -7.859375 C 5.285156 -7.859375 5.769531 -7.679688 6.125 -7.328125 C 6.476562 -6.984375 6.65625 -6.519531 6.65625 -5.9375 C 6.65625 -5.863281 6.648438 -5.742188 6.640625 -5.578125 C 6.578125 -5.054688 6.390625 -4.613281 6.078125 -4.25 C 5.773438 -3.894531 5.394531 -3.648438 4.9375 -3.515625 C 4.914062 -3.503906 4.898438 -3.488281 4.890625 -3.46875 C 4.878906 -3.445312 4.878906 -3.429688 4.890625 -3.421875 L 6 -0.21875 C 6.007812 -0.195312 6.015625 -0.171875 6.015625 -0.140625 C 6.015625 -0.046875 5.957031 0 5.84375 0 Z M 2.734375 -6.75 C 2.679688 -6.75 2.65625 -6.722656 2.65625 -6.671875 L 2.390625 -4.46875 C 2.378906 -4.414062 2.398438 -4.390625 2.453125 -4.390625 L 4.0625 -4.390625 C 4.445312 -4.390625 4.765625 -4.515625 5.015625 -4.765625 C 5.265625 -5.023438 5.390625 -5.351562 5.390625 -5.75 C 5.390625 -6.039062 5.296875 -6.28125 5.109375 -6.46875 C 4.921875 -6.65625 4.671875 -6.75 4.359375 -6.75 Z M 2.734375 -6.75 "/></g></g></g><g fill="#ffffff" fill-opacity="1"><g transform="translate(47.589643, 51.432624)"><g><path d="M 6.578125 -6.90625 C 6.578125 -6.851562 6.554688 -6.8125 6.515625 -6.78125 C 6.484375 -6.75 6.441406 -6.734375 6.390625 -6.734375 L 2.71875 -6.734375 C 2.675781 -6.734375 2.65625 -6.707031 2.65625 -6.65625 L 2.40625 -4.59375 C 2.40625 -4.539062 2.421875 -4.515625 2.453125 -4.515625 L 4.90625 -4.515625 C 4.957031 -4.515625 4.992188 -4.5 5.015625 -4.46875 C 5.046875 -4.4375 5.054688 -4.394531 5.046875 -4.34375 L 4.953125 -3.578125 C 4.929688 -3.460938 4.863281 -3.40625 4.75 -3.40625 L 2.328125 -3.40625 C 2.285156 -3.40625 2.257812 -3.378906 2.25 -3.328125 L 1.984375 -1.1875 C 1.984375 -1.144531 2.003906 -1.125 2.046875 -1.125 L 5.703125 -1.125 C 5.816406 -1.125 5.867188 -1.0625 5.859375 -0.9375 L 5.75 -0.171875 C 5.75 -0.117188 5.726562 -0.078125 5.6875 -0.046875 C 5.65625 -0.015625 5.613281 0 5.5625 0 L 0.75 0 C 0.632812 0 0.582031 -0.0546875 0.59375 -0.171875 L 1.515625 -7.671875 C 1.535156 -7.796875 1.601562 -7.859375 1.71875 -7.859375 L 6.53125 -7.859375 C 6.582031 -7.859375 6.617188 -7.835938 6.640625 -7.796875 C 6.671875 -7.765625 6.679688 -7.722656 6.671875 -7.671875 Z M 6.578125 -6.90625 "/></g></g></g><g fill="#ffffff" fill-opacity="1"><g transform="translate(55.142033, 51.432624)"><g/></g></g><g fill="#ffffff" fill-opacity="1"><g transform="translate(58.437268, 51.432624)"><g><path d="M 5.34375 0 C 5.238281 0 5.175781 -0.046875 5.15625 -0.140625 L 4.96875 -1.296875 C 4.96875 -1.335938 4.945312 -1.359375 4.90625 -1.359375 L 2.046875 -1.359375 C 2.015625 -1.359375 1.988281 -1.335938 1.96875 -1.296875 L 1.484375 -0.140625 C 1.441406 -0.046875 1.367188 0 1.265625 0 L 0.28125 0 C 0.21875 0 0.175781 -0.015625 0.15625 -0.046875 C 0.144531 -0.0859375 0.148438 -0.140625 0.171875 -0.203125 L 3.421875 -7.703125 C 3.460938 -7.804688 3.535156 -7.859375 3.640625 -7.859375 L 4.90625 -7.859375 C 5 -7.859375 5.054688 -7.804688 5.078125 -7.703125 L 6.5 -0.203125 L 6.5 -0.15625 C 6.5 -0.0507812 6.445312 0 6.34375 0 Z M 2.453125 -2.453125 C 2.421875 -2.398438 2.429688 -2.375 2.484375 -2.375 L 4.71875 -2.375 C 4.757812 -2.375 4.78125 -2.398438 4.78125 -2.453125 L 4.125 -6.265625 C 4.113281 -6.296875 4.097656 -6.3125 4.078125 -6.3125 C 4.066406 -6.3125 4.050781 -6.296875 4.03125 -6.265625 Z M 2.453125 -2.453125 "/></g></g></g><g fill="#ffffff" fill-opacity="1"><g transform="translate(66.605831, 51.432624)"><g><path d="M 0.75 0 C 0.632812 0 0.582031 -0.0546875 0.59375 -0.171875 L 1.515625 -7.671875 C 1.535156 -7.796875 1.601562 -7.859375 1.71875 -7.859375 L 2.578125 -7.859375 C 2.617188 -7.859375 2.660156 -7.84375 2.703125 -7.8125 C 2.742188 -7.789062 2.773438 -7.765625 2.796875 -7.734375 L 5.203125 -2.59375 C 5.222656 -2.5625 5.238281 -2.546875 5.25 -2.546875 C 5.257812 -2.554688 5.269531 -2.578125 5.28125 -2.609375 L 5.90625 -7.671875 C 5.925781 -7.796875 5.992188 -7.859375 6.109375 -7.859375 L 7.015625 -7.859375 C 7.128906 -7.859375 7.179688 -7.796875 7.171875 -7.671875 L 6.25 -0.171875 C 6.238281 -0.117188 6.21875 -0.078125 6.1875 -0.046875 C 6.15625 -0.015625 6.109375 0 6.046875 0 L 5.15625 0 C 5.0625 0 4.992188 -0.0390625 4.953125 -0.125 L 2.546875 -5.296875 C 2.535156 -5.328125 2.519531 -5.335938 2.5 -5.328125 C 2.476562 -5.316406 2.46875 -5.296875 2.46875 -5.265625 L 1.84375 -0.171875 C 1.84375 -0.0546875 1.78125 0 1.65625 0 Z M 0.75 0 "/></g></g></g><g fill="#ffffff" fill-opacity="1"><g transform="translate(74.942439, 51.432624)"><g><path d="M 0.75 0 C 0.632812 0 0.582031 -0.0546875 0.59375 -0.171875 L 1.515625 -7.671875 C 1.535156 -7.796875 1.601562 -7.859375 1.71875 -7.859375 L 4.328125 -7.859375 C 5.035156 -7.859375 5.597656 -7.679688 6.015625 -7.328125 C 6.441406 -6.972656 6.65625 -6.492188 6.65625 -5.890625 C 6.65625 -5.816406 6.644531 -5.703125 6.625 -5.546875 L 6.234375 -2.296875 C 6.148438 -1.597656 5.84375 -1.039062 5.3125 -0.625 C 4.789062 -0.207031 4.140625 0 3.359375 0 Z M 1.984375 -1.1875 C 1.972656 -1.144531 1.992188 -1.125 2.046875 -1.125 L 3.5625 -1.125 C 3.9375 -1.125 4.253906 -1.25 4.515625 -1.5 C 4.773438 -1.75 4.9375 -2.082031 5 -2.5 L 5.34375 -5.34375 C 5.351562 -5.394531 5.359375 -5.472656 5.359375 -5.578125 C 5.359375 -5.929688 5.253906 -6.210938 5.046875 -6.421875 C 4.847656 -6.628906 4.578125 -6.734375 4.234375 -6.734375 L 2.71875 -6.734375 C 2.675781 -6.734375 2.65625 -6.707031 2.65625 -6.65625 Z M 1.984375 -1.1875 "/></g></g></g><g fill="#ffffff" fill-opacity="1"><g transform="translate(82.774912, 51.432624)"><g/></g></g><g fill="#ffffff" fill-opacity="1"><g transform="translate(86.070147, 51.432624)"><g><path d="M 3.015625 0.09375 C 2.234375 0.09375 1.617188 -0.0820312 1.171875 -0.4375 C 0.734375 -0.789062 0.515625 -1.265625 0.515625 -1.859375 C 0.515625 -1.929688 0.519531 -2.035156 0.53125 -2.171875 L 0.578125 -2.40625 C 0.585938 -2.519531 0.648438 -2.578125 0.765625 -2.578125 L 1.65625 -2.578125 C 1.769531 -2.578125 1.820312 -2.519531 1.8125 -2.40625 L 1.78125 -2.234375 L 1.765625 -2.109375 C 1.765625 -1.796875 1.894531 -1.535156 2.15625 -1.328125 C 2.425781 -1.128906 2.789062 -1.03125 3.25 -1.03125 C 3.71875 -1.03125 4.078125 -1.140625 4.328125 -1.359375 C 4.585938 -1.585938 4.71875 -1.867188 4.71875 -2.203125 C 4.71875 -2.460938 4.601562 -2.671875 4.375 -2.828125 C 4.144531 -2.992188 3.734375 -3.203125 3.140625 -3.453125 C 2.691406 -3.628906 2.320312 -3.796875 2.03125 -3.953125 C 1.75 -4.117188 1.515625 -4.328125 1.328125 -4.578125 C 1.140625 -4.828125 1.046875 -5.140625 1.046875 -5.515625 C 1.046875 -6.015625 1.164062 -6.445312 1.40625 -6.8125 C 1.644531 -7.175781 1.976562 -7.453125 2.40625 -7.640625 C 2.84375 -7.835938 3.332031 -7.9375 3.875 -7.9375 C 4.644531 -7.9375 5.253906 -7.753906 5.703125 -7.390625 C 6.160156 -7.023438 6.390625 -6.535156 6.390625 -5.921875 C 6.390625 -5.859375 6.378906 -5.757812 6.359375 -5.625 L 6.34375 -5.484375 C 6.320312 -5.367188 6.253906 -5.3125 6.140625 -5.3125 L 5.25 -5.3125 C 5.195312 -5.3125 5.15625 -5.320312 5.125 -5.34375 C 5.09375 -5.375 5.082031 -5.40625 5.09375 -5.4375 L 5.109375 -5.5625 L 5.125 -5.703125 C 5.125 -6.023438 5 -6.289062 4.75 -6.5 C 4.5 -6.71875 4.144531 -6.828125 3.6875 -6.828125 C 3.257812 -6.828125 2.914062 -6.726562 2.65625 -6.53125 C 2.40625 -6.332031 2.28125 -6.054688 2.28125 -5.703125 C 2.28125 -5.515625 2.335938 -5.351562 2.453125 -5.21875 C 2.566406 -5.09375 2.726562 -4.976562 2.9375 -4.875 C 3.144531 -4.769531 3.46875 -4.628906 3.90625 -4.453125 C 4.363281 -4.265625 4.726562 -4.09375 5 -3.9375 C 5.28125 -3.789062 5.515625 -3.59375 5.703125 -3.34375 C 5.898438 -3.09375 6 -2.773438 6 -2.390625 C 6 -2.335938 5.992188 -2.242188 5.984375 -2.109375 C 5.929688 -1.671875 5.773438 -1.285156 5.515625 -0.953125 C 5.253906 -0.617188 4.910156 -0.359375 4.484375 -0.171875 C 4.054688 0.00390625 3.566406 0.09375 3.015625 0.09375 Z M 3.015625 0.09375 "/></g></g></g><g fill="#ffffff" fill-opacity="1"><g transform="translate(93.600129, 51.432624)"><g><path d="M 5.671875 -7.671875 C 5.671875 -7.722656 5.6875 -7.765625 5.71875 -7.796875 C 5.757812 -7.835938 5.804688 -7.859375 5.859375 -7.859375 L 6.78125 -7.859375 C 6.832031 -7.859375 6.867188 -7.835938 6.890625 -7.796875 C 6.921875 -7.765625 6.929688 -7.722656 6.921875 -7.671875 L 6 -0.171875 C 5.988281 -0.0546875 5.925781 0 5.8125 0 L 4.90625 0 C 4.78125 0 4.726562 -0.0546875 4.75 -0.171875 L 5.125 -3.328125 C 5.132812 -3.347656 5.132812 -3.363281 5.125 -3.375 C 5.113281 -3.394531 5.097656 -3.40625 5.078125 -3.40625 L 2.328125 -3.40625 C 2.285156 -3.40625 2.257812 -3.378906 2.25 -3.328125 L 1.859375 -0.171875 C 1.847656 -0.117188 1.828125 -0.078125 1.796875 -0.046875 C 1.765625 -0.015625 1.71875 0 1.65625 0 L 0.75 0 C 0.632812 0 0.582031 -0.0546875 0.59375 -0.171875 L 1.515625 -7.671875 C 1.535156 -7.796875 1.601562 -7.859375 1.71875 -7.859375 L 2.625 -7.859375 C 2.75 -7.859375 2.800781 -7.796875 2.78125 -7.671875 L 2.40625 -4.59375 C 2.40625 -4.539062 2.421875 -4.515625 2.453125 -4.515625 L 5.21875 -4.515625 C 5.257812 -4.515625 5.28125 -4.539062 5.28125 -4.59375 Z M 5.671875 -7.671875 "/></g></g></g><g fill="#ffffff" fill-opacity="1"><g transform="translate(101.645451, 51.432624)"><g><path d="M 5.34375 0 C 5.238281 0 5.175781 -0.046875 5.15625 -0.140625 L 4.96875 -1.296875 C 4.96875 -1.335938 4.945312 -1.359375 4.90625 -1.359375 L 2.046875 -1.359375 C 2.015625 -1.359375 1.988281 -1.335938 1.96875 -1.296875 L 1.484375 -0.140625 C 1.441406 -0.046875 1.367188 0 1.265625 0 L 0.28125 0 C 0.21875 0 0.175781 -0.015625 0.15625 -0.046875 C 0.144531 -0.0859375 0.148438 -0.140625 0.171875 -0.203125 L 3.421875 -7.703125 C 3.460938 -7.804688 3.535156 -7.859375 3.640625 -7.859375 L 4.90625 -7.859375 C 5 -7.859375 5.054688 -7.804688 5.078125 -7.703125 L 6.5 -0.203125 L 6.5 -0.15625 C 6.5 -0.0507812 6.445312 0 6.34375 0 Z M 2.453125 -2.453125 C 2.421875 -2.398438 2.429688 -2.375 2.484375 -2.375 L 4.71875 -2.375 C 4.757812 -2.375 4.78125 -2.398438 4.78125 -2.453125 L 4.125 -6.265625 C 4.113281 -6.296875 4.097656 -6.3125 4.078125 -6.3125 C 4.066406 -6.3125 4.050781 -6.296875 4.03125 -6.265625 Z M 2.453125 -2.453125 "/></g></g></g><g fill="#ffffff" fill-opacity="1"><g transform="translate(109.814015, 51.432624)"><g><path d="M 0.75 0 C 0.632812 0 0.582031 -0.0546875 0.59375 -0.171875 L 1.515625 -7.671875 C 1.535156 -7.796875 1.601562 -7.859375 1.71875 -7.859375 L 2.625 -7.859375 C 2.75 -7.859375 2.800781 -7.796875 2.78125 -7.671875 L 2.375 -4.375 C 2.363281 -4.34375 2.367188 -4.320312 2.390625 -4.3125 C 2.410156 -4.3125 2.429688 -4.328125 2.453125 -4.359375 L 5.671875 -7.75 C 5.722656 -7.820312 5.796875 -7.859375 5.890625 -7.859375 L 6.9375 -7.859375 C 6.96875 -7.859375 6.992188 -7.847656 7.015625 -7.828125 C 7.046875 -7.804688 7.0625 -7.78125 7.0625 -7.75 C 7.0625 -7.707031 7.039062 -7.664062 7 -7.625 L 4.171875 -4.546875 C 4.140625 -4.515625 4.132812 -4.484375 4.15625 -4.453125 L 6.265625 -0.21875 C 6.285156 -0.1875 6.296875 -0.15625 6.296875 -0.125 C 6.296875 -0.0390625 6.238281 0 6.125 0 L 5.078125 0 C 4.992188 0 4.929688 -0.0390625 4.890625 -0.125 L 3.1875 -3.53125 C 3.175781 -3.550781 3.160156 -3.5625 3.140625 -3.5625 C 3.128906 -3.570312 3.109375 -3.566406 3.078125 -3.546875 L 2.1875 -2.59375 C 2.164062 -2.550781 2.148438 -2.523438 2.140625 -2.515625 L 1.859375 -0.171875 C 1.847656 -0.117188 1.828125 -0.078125 1.796875 -0.046875 C 1.765625 -0.015625 1.71875 0 1.65625 0 Z M 0.75 0 "/></g></g></g><g fill="#ffffff" fill-opacity="1"><g transform="translate(117.66889, 51.432624)"><g><path d="M 6.578125 -6.90625 C 6.578125 -6.851562 6.554688 -6.8125 6.515625 -6.78125 C 6.484375 -6.75 6.441406 -6.734375 6.390625 -6.734375 L 2.71875 -6.734375 C 2.675781 -6.734375 2.65625 -6.707031 2.65625 -6.65625 L 2.40625 -4.59375 C 2.40625 -4.539062 2.421875 -4.515625 2.453125 -4.515625 L 4.90625 -4.515625 C 4.957031 -4.515625 4.992188 -4.5 5.015625 -4.46875 C 5.046875 -4.4375 5.054688 -4.394531 5.046875 -4.34375 L 4.953125 -3.578125 C 4.929688 -3.460938 4.863281 -3.40625 4.75 -3.40625 L 2.328125 -3.40625 C 2.285156 -3.40625 2.257812 -3.378906 2.25 -3.328125 L 1.984375 -1.1875 C 1.984375 -1.144531 2.003906 -1.125 2.046875 -1.125 L 5.703125 -1.125 C 5.816406 -1.125 5.867188 -1.0625 5.859375 -0.9375 L 5.75 -0.171875 C 5.75 -0.117188 5.726562 -0.078125 5.6875 -0.046875 C 5.65625 -0.015625 5.613281 0 5.5625 0 L 0.75 0 C 0.632812 0 0.582031 -0.0546875 0.59375 -0.171875 L 1.515625 -7.671875 C 1.535156 -7.796875 1.601562 -7.859375 1.71875 -7.859375 L 6.53125 -7.859375 C 6.582031 -7.859375 6.617188 -7.835938 6.640625 -7.796875 C 6.671875 -7.765625 6.679688 -7.722656 6.671875 -7.671875 Z M 6.578125 -6.90625 "/></g></g></g></svg>